<?xml version="1.0" encoding="UTF-8" standalone="no"?>
<svg width="235px" height="88px" viewBox="0 0 235 88" version="1.1" xmlns="http://www.w3.org/2000/svg" xmlns:xlink="http://www.w3.org/1999/xlink" xmlns:sketch="http://www.bohemiancoding.com/sketch/ns">
    <g id="Page-1" stroke="none" stroke-width="1" fill="none" fill-rule="evenodd" sketch:type="MSPage">
        <g id="Vector-Smart-Object-01" sketch:type="MSLayerGroup" transform="translate(1.000000, 1.000000)" fill="#FFFFFF">
            <g id="Group" sketch:type="MSShapeGroup">
                <path d="M233.7,31 L232.3,29.6 L220.5,41.4 L178.6,-0.5 L177.2,0.9 L219.1,42.8 L177.2,84.8 L178.6,86.2 L220.5,44.2 L232.3,56 L233.7,54.6 L221.9,42.8 L233.7,31 Z" id="Shape"></path>
                <path d="M56.2,0.9 L54.8,-0.5 L12.8,41.4 L1,29.6 L-0.4,31 L11.4,42.8 L-0.4,54.6 L1,56 L12.8,44.2 L54.8,86.2 L56.2,84.8 L14.2,42.8 L56.2,0.9 Z" id="Shape"></path>
                <path d="M50.9,28.1 C50.9,29.7 51.4,31.2 52.4,32.3 C54.1,34 57.9,35 69.1,35.5 C80.8,36 83.2,36.9 84.3,38 C85.1,38.9 85.3,40 85.3,41.1 C85.3,42.3 85,43.5 84,44.5 C82.8,45.7 79.9,47.2 69.7,47.2 C62.1,47.2 54.2,45.6 49.8,43.8 L49.8,46 C54.3,47.8 61.4,49.2 69.6,49.2 C81,49.2 84.3,47.4 86,45.7 C87.3,44.4 87.8,42.6 87.8,40.9 C87.8,39.3 87.4,37.7 86.3,36.5 C84.6,34.8 81.9,33.9 69.6,33.3 C58.9,32.8 55.7,32 54.4,30.7 C53.7,30.1 53.4,29.1 53.4,27.9 C53.4,26.6 53.8,25.5 54.6,24.7 C56.1,23.2 59.4,22.1 68.2,22.1 C74.8,22.1 81.3,23.3 85.7,24.9 L85.7,22.7 C82,21.4 75.7,20.1 68.2,20.1 C58.8,20.1 54.6,21.5 52.7,23.4 C51.4,24.7 50.9,26.4 50.9,28.1 L50.9,28.1 Z" id="Shape"></path>
                <path d="M137.8,34.4 L114.3,34.4 L114.3,36.5 L135.3,36.5 C135.3,38.5 135.3,41.3 133.1,43.5 C130.6,46.1 125.7,47.2 117.8,47.2 C108.1,47.2 103.9,45.2 101.6,43 C99.7,41.1 98.6,38.4 98.6,34.7 C98.6,31 99.8,28.3 101.8,26.3 C104.1,24 108,22.2 117.1,22.2 C124.8,22.2 131.6,23.6 135.6,25.7 L135.6,23.3 C132.2,21.7 125.6,20.1 117.1,20.1 C106.9,20.1 102.4,22.4 99.7,25 C97.3,27.4 96.1,30.9 96.1,34.7 C96.1,38.6 97.3,42 99.7,44.4 C102.3,47 107,49.4 117.9,49.4 C126.5,49.4 132.1,48 135.1,45 C137.4,42.7 138,39.8 138,36.5 L138,34.4 L137.8,34.4 Z" id="Shape"></path>
                <path d="M151.1,36 L182.8,36 L182.8,33.9 L151.1,33.9 L151.1,22.8 L183.4,22.8 L183.4,20.6 L148.6,20.6 L148.6,48.6 L151.1,48.6 L151.1,36 Z" id="Shape"></path>
                <path d="M70.2,62.9 L68.9,58.8 L66.4,58.8 L65,62.9 L63.8,58.8 L60.8,58.8 L63.6,67.4 L66.1,67.4 L67.6,63.2 L69.1,67.4 L71.6,67.4 L74.4,58.8 L71.5,58.8 L70.2,62.9 Z" id="Shape"></path>
                <path d="M83.9,64.1 L88.1,64.1 L88.1,62 L83.9,62 L83.9,61.1 L88.4,61.1 L88.4,58.8 L81.1,58.8 L81.1,67.4 L88.5,67.4 L88.5,65 L83.9,65 L83.9,64.1 Z" id="Shape"></path>
                <path d="M102,62.9 C102.9,62.6 103.5,62 103.5,60.9 L103.5,60.9 C103.5,60.3 103.3,59.9 103,59.6 C102.5,59.1 101.8,58.8 100.6,58.8 L95.8,58.8 L95.8,67.4 L100.6,67.4 C102.8,67.4 103.9,66.4 103.9,65 L103.9,65 C103.8,63.8 103.1,63.2 102,62.9 L102,62.9 Z M98.5,61 L99.7,61 C100.3,61 100.6,61.2 100.6,61.6 L100.6,61.6 C100.6,62 100.3,62.2 99.7,62.2 L98.5,62.2 L98.5,61 L98.5,61 Z M100.9,64.6 C100.9,65 100.6,65.2 100,65.2 L98.6,65.2 L98.6,63.9 L100,63.9 C100.6,63.9 100.9,64.2 100.9,64.6 L100.9,64.6 L100.9,64.6 Z" id="Shape"></path>
                <path d="M123.1,58.8 L119.8,58.8 L119.8,67.4 L123,67.4 C126.5,67.4 128.2,65.6 128.2,63.1 L128.2,63.1 C128.2,60.5 126.5,58.8 123.1,58.8 L123.1,58.8 Z M125.3,63.1 C125.3,64.3 124.5,64.9 123.1,64.9 L122.6,64.9 L122.6,61.3 L123.1,61.3 C124.4,61.3 125.3,61.8 125.3,63.1 L125.3,63.1 L125.3,63.1 Z" id="Shape"></path>
                <path d="M138,64.1 L142.2,64.1 L142.2,62 L138,62 L138,61.1 L142.5,61.1 L142.5,58.8 L135.2,58.8 L135.2,67.4 L142.6,67.4 L142.6,65 L138,65 L138,64.1 Z" id="Shape"></path>
                <path d="M153.9,63.6 L152.3,58.8 L149.1,58.8 L152.5,67.4 L155.3,67.4 L158.8,58.8 L155.6,58.8 L153.9,63.6 Z" id="Shape"></path>
                <path d="M168.9,61.8 C168,61.6 167.8,61.5 167.8,61.2 L167.8,61.2 C167.8,61 168,60.8 168.4,60.8 C169.2,60.8 170.2,61.1 171,61.6 L172.4,59.7 C171.4,58.9 170.2,58.5 168.5,58.5 C166.1,58.5 164.9,59.8 164.9,61.4 L164.9,61.4 C164.9,63.2 166.6,63.8 168.5,64.2 C169.4,64.4 169.7,64.5 169.7,64.8 L169.7,64.8 C169.7,65 169.5,65.2 169,65.2 C168,65.2 166.9,64.9 166,64.2 L164.5,66 C165.6,67 167.2,67.4 168.9,67.4 C171.2,67.4 172.7,66.3 172.7,64.5 L172.7,64.5 C172.6,62.9 171.1,62.2 168.9,61.8 L168.9,61.8 Z" id="Shape"></path>
            </g>
        </g>
    </g>
</svg>