<?xml version="1.0" encoding="utf-8"?>
<!-- Generator: Adobe Illustrator 18.1.0, SVG Export Plug-In . SVG Version: 6.00 Build 0)  -->
<!DOCTYPE svg PUBLIC "-//W3C//DTD SVG 1.1//EN" "http://www.w3.org/Graphics/SVG/1.1/DTD/svg11.dtd">
<svg version="1.1" id="Layer_1" xmlns="http://www.w3.org/2000/svg" xmlns:xlink="http://www.w3.org/1999/xlink" x="0px" y="0px"
	 viewBox="0 0 200 75" enable-background="new 0 0 200 75" xml:space="preserve">
<path id="head" fill="#FFFFFF" d="M136.9,21.3c0.7-1.7,0.7-11.7-3-21.2c0,0-8.7,1-21.8,10C109.3,9.3,104.7,9,100,9
	s-9.3,0.4-12.1,1.1c-13.1-9-21.8-10-21.8-10c-3.8,9.5-3.7,19.5-3,21.2c-4.4,4.8-7.2,10.6-7.2,18.5c0,34.4,28.6,35,35.8,35
	c1.6,0,4.9,0,8.3,0c3.4,0,6.7,0,8.3,0c7.2,0,35.8-0.6,35.8-35C144.1,32,141.4,26.2,136.9,21.3z M100.1,70.6h-0.3
	c-18.1,0-32.1-2.2-32.1-19.7c0-4.2,1.5-8.1,5-11.4c5.9-5.4,15.8-2.5,27.1-2.5c0,0,0.1,0,0.1,0c0,0,0.1,0,0.1,0
	c11.3,0,21.2-2.9,27.1,2.5c3.5,3.2,5,7.1,5,11.4C132.3,68.5,118.2,70.6,100.1,70.6z"/>
<path id="right-eye" fill="#FFFFFF" d="M115.2,43.8c-3.4,0-6.2,3.9-6.2,8.6c0,4.8,2.8,8.6,6.2,8.6c3.4,0,6.2-3.9,6.2-8.6
	C121.5,47.6,118.7,43.8,115.2,43.8z"/>
<path id="left-eye" fill="#FFFFFF" d="M84.8,43.8c-3.4,0-6.2,3.9-6.2,8.6c0,4.8,2.8,8.6,6.2,8.6c3.4,0,6.2-3.9,6.2-8.6
	C91,47.6,88.2,43.8,84.8,43.8z"/>
</svg>
