<?xml version="1.0" encoding="utf-8"?>
<!-- Generator: Adobe Illustrator 18.1.0, SVG Export Plug-In . SVG Version: 6.00 Build 0)  -->
<!DOCTYPE svg PUBLIC "-//W3C//DTD SVG 1.1//EN" "http://www.w3.org/Graphics/SVG/1.1/DTD/svg11.dtd">
<svg version="1.1" id="_x31_" xmlns="http://www.w3.org/2000/svg" xmlns:xlink="http://www.w3.org/1999/xlink" x="0px" y="0px"
	 viewBox="0 0 200 75" enable-background="new 0 0 200 75" xml:space="preserve">
<g>
	<path fill-rule="evenodd" clip-rule="evenodd" fill="#FFFFFF" d="M58.4,51.3c-0.6,0-1.4,0.3-2.3,0.5c-1.2,0.4-2.5,0.8-3.6,0.9
		c-3.3-8.5-5.8-16.8-7.7-25.3c-1.7,2.9-1.8,6.9-1.8,10.7c-0.1,4.2-0.1,8.4-1.5,11.4l-0.7-0.2c-1.2,0-2.2,0.1-3.2,0.3
		c-1,0.1-2,0.3-3.1,0.3c-0.4,0-0.9,0-1.4-0.1c-0.7-1.3-1.6-2.8-2.6-4.3c-1.4-2.4-2.9-4.7-4.6-6.9c-0.5,1.3-0.4,2.4-0.2,3.4
		c0.3,2,0.6,3.9,0.4,6.3c-1.1,0.6-3.6,2-6.5,2c-0.4,0-0.9,0-1.3-0.1c-2.4-7.7-2.2-15.9-2-25.3l0.1-5.5c2-0.6,4.2-1,6.6-1
		c0.5,0,1.1,0,1.7,0.1c2.1,2.9,3.9,6.7,5.7,10.3c1,2,2,4.1,3.1,6c2-8.2,3.5-17.4,8-23.4c0.1,0.1,0.3,0.1,0.6,0.1c0.1,0,0.2,0,0.3,0
		c1,0,1.8,0.1,2.6,0.3c0.9,0.1,1.7,0.3,2.7,0.3c0.3,0,0.6,0,1-0.1c2.8,6.1,4.4,14.2,6,21.9c1.2,6,2.5,12.3,4.5,17.7
		C59,51.4,58.7,51.3,58.4,51.3z"/>
	<path fill-rule="evenodd" clip-rule="evenodd" fill="#FFFFFF" d="M79.3,51.7c-1,0-2.1,0.3-3.2,0.6c-1.1,0.3-2.3,0.6-3.3,0.6
		c-0.3,0-0.6,0-0.8-0.1c-1.3-0.2-2.3-0.9-3-2c-1.3-2-1.7-5.2-0.5-9.2c1.9,0.5,4.3,0.8,7,0.8c0.2,0,0.4,0,0.7,0c0.7,0,1.3,0,1.7,0.2
		c1.3-5.3,0.6-12.8-0.4-16.9c-0.8-0.2-1.5-0.4-2.2-0.7c-1.2-0.4-2.4-0.8-4-0.8c-0.3,0-0.6,0-0.9,0c-5.1,0.7-8.5,7.8-9.3,14.5
		c-0.7,6.2,0.6,13.6,6.5,15.9c1.2,0.5,2.7,0.7,4.5,0.7c3.5,0,7.6-1,10.2-2C81.5,52.3,80.6,51.7,79.3,51.7z M68,38
		c0.4-3,1.5-5.3,3.2-7.3c0.7,2.7,0.8,5.6,0.4,7.7L71,38.8l-0.2,0.1c-0.5,0-0.8-0.1-1.1-0.3c-0.3-0.1-0.5-0.2-0.8-0.2l-0.9,0.1L68,38
		z"/>
	<path fill-rule="evenodd" clip-rule="evenodd" fill="#FFFFFF" d="M120,37.9c-1.4,0.1-2.8,0.2-4,0.5c-0.3,3.4-0.2,6.6,0,10
		c0.1,2.4,0.2,4.9,0.2,7.5c-1.3,0.2-2.4,0.2-3.6,0.3c-0.6,0-1.3,0.1-2,0.2c0.1-3.7-0.2-7.1-0.5-10.3c-0.2-2.2-0.4-4.5-0.4-6.8
		l-1.7-0.4c-2.7-0.1-5.4-0.1-7-1.2c0-1.1,0.1-2,0.6-2.5c0.4-0.5,1.1-0.7,2.3-0.7c0.6,0,1.3,0.1,2,0.1c0.8,0.1,1.6,0.1,2.4,0.1
		c0.6-4,0.1-8.1-0.4-12.5c-1-7.7-2-15.6,0.1-22c0.1,0.2,0.4,0.2,0.7,0.2c0.1,0,0.1,0,0.2,0c4,0,6.1,1.9,7.5,3.5
		c-1.1,5.3-0.7,11.7-0.3,17.9c0.3,4.4,0.5,8.5,0.2,12l0,0.4l0.8,0.1c1.2,0,1.2-1.2,1.3-1.9c0-1,0.1-1.3,0.6-1.3
		c2.1,0.6,3.3,2,4.7,3.5c0.7,0.8,1.4,1.6,2.3,2.3C124.7,37.6,122.3,37.7,120,37.9z"/>
	<path fill-rule="evenodd" clip-rule="evenodd" fill="#FFFFFF" d="M147,45.7c-0.5,0.8-1,1.5-1.4,2.3c-1.7,1.3-2.5,2.5-3.7,4.3
		l-0.6,1c-1.6,0.6-3.3,0.9-4.7,0.9c-2.1,0-3.8-0.7-5.1-2.2c-3.3-3.5-4.4-11.2-3.5-22.8c2.4,0.3,3.9,1.2,5.5,2.2
		c0.6,0.3,1.1,0.7,1.8,1c-0.1,1.3,0,3.3,0.1,5.4c0.1,3.9,0.3,8.4,0.9,12.4c6.4-2.2,6.7-11.4,6.8-18.2l0.1-2c0.1,0.1,0.3,0.1,0.6,0.1
		c0.2,0,0.3,0,0.5,0c2.3,0,4.4,1.7,6.1,3C151.2,39.1,149.2,42.3,147,45.7z"/>
	<path fill-rule="evenodd" clip-rule="evenodd" fill="#FFFFFF" d="M181.5,21.7c-3.5-2.1-6.6-3.1-9.4-3.1c-3.5,0-6.5,1.6-9.3,4.8
		c-5.2,6.1-6.2,18.8-7,25.2c-0.3,0.1-0.7,0.2-1,0.3c-0.9,0.3-1.7,0.5-2.1,0.9c2.7,3.2,3.3,8.5,3.8,13.6c0.4,4,0.8,8.1,2,10.9
		c0.6,0.1,1.6,0.2,2.8,0.2c0.6,0,1.2,0,1.8,0c1,0,2,0,2.8,0.3c-1.9-4.8-2.6-11.2-2-20.6c7.7-1.8,14.5-7.3,17.8-14.2
		C183.5,35.9,185.1,29.3,181.5,21.7z M174.5,36.4c-1.7,4.8-5.8,9.2-10.5,10.5c1.5-8.1,3.5-17.2,9.2-22.6l0.3-0.3l0.2,0.4
		C176.3,29,175.5,33.4,174.5,36.4z"/>
	<path fill-rule="evenodd" clip-rule="evenodd" fill="#FFFFFF" d="M99.7,49.8c-1.2,1.8-3,2.8-5.1,2.8c-2.3,0-4.5-1.2-5.9-3
		c-1.3-1.8-1.6-4-0.5-6.5c1.8,0.4,3.6,0.7,5.3,0.7c1.4,0,2.6-0.2,3.7-0.3c-0.3-4.1,0.1-6.9,0.7-9.9c0.4-2.5,0.8-5.1,0.9-8.3
		c-2.3-1.7-4.8-2.6-7.5-2.9c-6.8,5.2-9.9,13.1-9.6,24.2c0.9,4.9,7.4,7.9,12.8,7.9c3.3,0,6.1-1.1,7.8-2.7
		C102,50.9,101,50.3,99.7,49.8z M90.4,33.4c0.4-0.9,0.7-1.7,1.1-2.6l0.4-1.1l0.3,1.1c0.7,2.5,0.5,7.3-0.6,9.8l-1.1,0
		c-0.7,0-1.3-0.1-1.8-0.8C88.7,37.2,89.6,35.3,90.4,33.4z"/>
</g>
</svg>
