<svg version="1.1" xmlns="http://www.w3.org/2000/svg" xmlns:xlink="http://www.w3.org/1999/xlink" x="0px" y="0px" viewBox="0 0 484 186" enable-background="new 0 0 484 186" xml:space="preserve" data-global-elvn="enableViewport, disableOnClick, none, startInvisible, responsive, 0">
<g id="right_bottom" xmlns="http://www.w3.org/2000/svg">
	<line fill="none" stroke="#FFFFFF" stroke-width="4" stroke-miterlimit="10" x1="482" y1="68.5" x2="367.7" y2="182.8" data-elvn="flyRotateC, in, 0, 600, easein" class="elvn-layer"></line>
</g>
<g id="right_top" xmlns="http://www.w3.org/2000/svg">
	<line fill="none" stroke="#FFFFFF" stroke-width="4" stroke-miterlimit="10" x1="482" y1="118.8" x2="367.7" y2="4.5" data-elvn="flyRotateC, in, 300, 600, easein" class="elvn-layer"></line>
</g>
<g id="left_bottom" xmlns="http://www.w3.org/2000/svg">
	<line fill="none" stroke="#FFFFFF" stroke-width="4" stroke-miterlimit="10" x1="1.6" y1="68.5" x2="115.9" y2="182.8" data-elvn="flyRotateC, in, 600, 600, easein" class="elvn-layer"></line>
</g>
<g id="left_top" xmlns="http://www.w3.org/2000/svg">
	<line fill="none" stroke="#FFFFFF" stroke-width="4" stroke-miterlimit="10" x1="1.6" y1="118.8" x2="115.9" y2="4.5" data-elvn="flyRotateC, in, 900, 600, easein" class="elvn-layer"></line>
</g>
<g id="WEB_DEVS" data-elvn="rubberY, in, 2400, 600, easein" class="elvn-layer" xmlns="http://www.w3.org/2000/svg">
	<polygon fill="#FFFFFF" points="145.7,134.7 142.9,126.1 137.7,126.1 134.9,134.7 132.4,126.2 126.2,126.2 132,144 137.1,144 
		140.3,135.2 143.4,144 148.5,144 154.3,126.2 148.2,126.2 	"></polygon>
	<polygon fill="#FFFFFF" points="174,137.1 182.6,137.1 182.6,132.8 174,132.8 174,131 183.3,131 183.3,126.2 168.2,126.2 
		168.2,143.9 183.4,143.9 183.4,139 174,139 	"></polygon>
	<path fill="#FFFFFF" d="M211.3,134.6c1.9-0.7,3.2-2,3.2-4.1v-0.1c0-1.2-0.5-2.1-1.1-2.8c-1-1-2.6-1.6-5-1.6h-9.9v17.7h9.8
		c4.5,0,6.8-2.1,6.8-4.9v-0.1C215.1,136.5,213.6,135.3,211.3,134.6z M204.2,130.7h2.6c1.3,0,1.9,0.4,1.9,1.2v0.1
		c0,0.8-0.6,1.2-1.9,1.2h-2.6V130.7z M209.1,138.1c0,0.8-0.7,1.3-2,1.3h-3v-2.6h3C208.5,136.8,209.1,137.3,209.1,138.1L209.1,138.1z
		"></path>
	<path fill="#FFFFFF" d="M254.9,126.2h-6.8v17.7h6.6c7.2,0,10.8-3.7,10.8-9v-0.1C265.5,129.6,262,126.2,254.9,126.2z M259.5,135.1
		c0,2.6-1.7,3.7-4.5,3.7h-1v-7.4h1C257.8,131.3,259.5,132.5,259.5,135.1L259.5,135.1z"></path>
	<polygon fill="#FFFFFF" points="285.9,137.1 294.6,137.1 294.6,132.8 285.9,132.8 285.9,131 295.2,131 295.2,126.2 280.1,126.2 
		280.1,143.9 295.4,143.9 295.4,139 285.9,139 	"></polygon>
	<polygon fill="#FFFFFF" points="318.8,136.1 315.4,126.2 308.7,126.2 315.9,144 321.6,144 328.8,126.2 322.3,126.2 	"></polygon>
	<path fill="#FFFFFF" d="M349.8,132.5c-1.9-0.4-2.4-0.7-2.4-1.1v-0.1c0-0.4,0.4-0.7,1.3-0.7c1.6,0,3.6,0.5,5.3,1.7l2.9-4
		c-2.1-1.6-4.6-2.4-8-2.4c-4.9,0-7.5,2.6-7.5,6v0.1c0,3.8,3.5,4.9,7.5,5.7c1.9,0.4,2.5,0.7,2.5,1.2v0.1c0,0.5-0.5,0.8-1.5,0.8
		c-2.1,0-4.3-0.6-6.2-2.1l-3.2,3.8c2.3,2,5.5,3,9.1,3c4.8,0,7.8-2.3,7.8-6v-0.1C357.4,134.6,354.3,133.3,349.8,132.5z"></path>
</g>
<g id="SGF" data-elvn="drawLines, 1600, 1500, #d4d4d4, 1, notRandom" class="elvn-layer" xmlns="http://www.w3.org/2000/svg">
	<g>
		<path fill="#FFFFFF" d="M105.8,62.7c0,3.3,1,6.4,3.1,8.6c3.6,3.6,11.4,5.5,34.5,6.7c24.2,1.1,29.2,2.8,31.5,5.1
			c1.7,1.8,2.2,4.1,2.2,6.5c0,2.5-0.7,5-2.6,6.9c-2.5,2.5-8.4,5.6-29.5,5.6c-15.7,0-32-3.2-41.2-7v4.6c9.3,3.8,24.1,6.6,41,6.6
			c23.5,0,30.4-3.8,33.8-7.2c2.6-2.6,3.6-6.5,3.6-9.9c0-3.4-0.7-6.7-3.1-9.1c-3.5-3.5-9.2-5.5-34.6-6.7c-22.2-1.1-28.7-2.6-31.4-5.3
			c-1.4-1.3-2.2-3.2-2.2-5.8c0-2.6,0.7-5,2.4-6.6c3.1-3.1,9.9-5.3,28-5.3c13.7,0,27.1,2.5,36.2,5.7v-4.6c-7.7-2.6-20.6-5.4-36.2-5.4
			c-19.4,0-28,2.9-32,6.9C106.8,55.6,105.8,59.1,105.8,62.7z"></path>
		<path fill="#FFFFFF" d="M285.4,75.7h-48.6v4.4h43.4c0,4.1-0.1,9.9-4.6,14.4c-5.2,5.3-15.4,7.7-31.6,7.7c-20,0-28.8-4.1-33.6-8.8
			c-3.9-3.9-6.3-9.6-6.3-17.2c0-7.7,2.6-13.3,6.5-17.4c4.8-4.8,12.9-8.5,31.7-8.5c16,0,30,3,38.3,7.3v-5c-7-3.2-20.8-6.6-38.3-6.6
			c-21.1,0-30.4,4.7-35.9,10.2c-5,5-7.4,12.2-7.4,20.1c0,8.1,2.5,15.1,7.4,20c5.5,5.5,15.1,10.3,37.6,10.3c17.9,0,29.4-2.9,35.5-9.1
			c4.7-4.7,6-10.8,6-17.6V75.7z"></path>
		<polygon fill="#FFFFFF" points="313,79.1 378.6,79.1 378.6,74.7 313,74.7 313,51.7 379.8,51.7 379.8,47.3 307.9,47.3 307.9,105.2 
			313,105.2 		"></polygon>
	</g>
</g>
</svg>